<?xml version="1.0" standalone="no"?>
<!DOCTYPE svg PUBLIC "-//W3C//DTD SVG 20010904//EN"
 "http://www.w3.org/TR/2001/REC-SVG-20010904/DTD/svg10.dtd">
<svg version="1.0" xmlns="http://www.w3.org/2000/svg"
 width="300.000000pt" height="300.000000pt" viewBox="0 0 300.000000 300.000000"
 preserveAspectRatio="xMidYMid meet">
<metadata>
Created by potrace 1.10, written by Peter Selinger 2001-2011
</metadata>
<g transform="translate(0.000000,300.000000) scale(0.100000,-0.100000)"
fill="#000000" stroke="none">
<path d="M910 2487 c0 -158 -3 -192 -20 -242 -47 -138 -211 -393 -336 -525
-83 -86 -84 -88 -84 -139 0 -28 5 -51 10 -51 33 0 82 33 105 72 15 24 96 113
180 198 235 238 342 412 338 550 -2 81 -44 218 -80 261 -25 29 -77 59 -103 59
-6 0 -10 -64 -10 -183z"/>
<path d="M1550 2482 c-57 -64 -120 -207 -120 -271 0 -82 30 -133 150 -256 62
-63 112 -123 116 -139 13 -54 -33 -128 -200 -320 -111 -127 -125 -139 -211
-186 -106 -57 -124 -74 -108 -98 19 -31 58 -24 178 33 162 77 215 98 215 82
-1 -6 -5 -59 -10 -117 -14 -154 5 -644 29 -729 l17 -64 32 39 c25 30 31 45 27
69 -2 16 -7 107 -11 200 -5 152 -4 180 15 259 13 52 21 121 21 171 0 72 5 99
40 196 59 165 102 334 104 409 2 114 -6 134 -100 231 -139 144 -151 202 -67
305 86 107 66 200 -49 228 -23 5 -32 -1 -68 -42z"/>
<path d="M2137 2148 c-40 -29 -67 -127 -67 -244 0 -133 17 -277 42 -357 32
-102 206 -397 234 -397 21 0 43 58 34 89 -4 14 -24 62 -44 107 -57 130 -108
309 -123 431 -8 70 13 146 54 200 51 67 38 113 -47 164 -43 26 -55 27 -83 7z"/>
<path d="M793 1144 c-36 -38 -74 -91 -88 -123 -25 -55 -40 -86 -92 -184 -14
-26 -45 -69 -69 -96 -35 -39 -44 -56 -44 -85 0 -44 17 -53 57 -33 27 15 113
100 143 143 10 15 30 24 61 27 l46 6 17 -62 c23 -84 56 -145 136 -252 80 -107
125 -151 163 -157 21 -4 27 -1 27 13 0 35 -47 146 -96 230 -78 131 -88 158
-114 321 -18 110 -15 148 16 249 3 12 -9 25 -40 43 -24 14 -48 26 -53 26 -4 0
-36 -30 -70 -66z"/>
</g>
</svg>
